<svg xmlns="http://www.w3.org/2000/svg" viewBox="0 0 13.66 15.58"><defs><style>.cls-1{fill:#fff;}</style></defs><title>Asset 11Bell Icon</title><g id="Layer_2" data-name="Layer 2"><g id="Lab_Owner" data-name="Lab Owner"><path class="cls-1" d="M6.22,0H7.44a.47.47,0,0,1,.38.14.38.38,0,0,1,0,.38L7.62,1A3.69,3.69,0,0,1,9.49,2.07a3.6,3.6,0,0,1,1,1.82l.82,4.24,1.53,2.25H13a.58.58,0,0,1,.43.19.63.63,0,0,1,.18.45,1,1,0,0,1-.17.53.86.86,0,0,1-.4.35l-.3.12-.84.25q-.65.18-1.34.32t-1.72.26A18.27,18.27,0,0,1,6.83,13q-.74,0-1.49-.06T4,12.76l-1.15-.2q-.55-.11-1-.23l-.71-.21L.71,12l-.14-.05a.94.94,0,0,1-.4-.36A1,1,0,0,1,0,11a.63.63,0,0,1,.18-.45.58.58,0,0,1,.43-.19H.83L2.36,8.14l.82-4.24a3.57,3.57,0,0,1,1-1.82A3.79,3.79,0,0,1,6,1L5.8.58a.44.44,0,0,1,0-.42A.43.43,0,0,1,6.22,0ZM5.5,14.15a11.1,11.1,0,0,0,1.32.08,10.89,10.89,0,0,0,1.32-.08,2.34,2.34,0,0,1-.51,1,1.07,1.07,0,0,1-.81.4,1.09,1.09,0,0,1-.82-.4A2.21,2.21,0,0,1,5.5,14.15Z"/></g></g></svg>