<svg xmlns="http://www.w3.org/2000/svg" viewBox="0 0 8.88 8.88"><defs><style>.cls-1{fill:#999;}</style></defs><title>Asset 15Copyright icon</title><g id="Layer_2" data-name="Layer 2"><g id="User"><path class="cls-1" d="M4.44,0A4.33,4.33,0,0,1,6.17.35,4.37,4.37,0,0,1,8.53,2.72a4.39,4.39,0,0,1,0,3.45A4.37,4.37,0,0,1,6.17,8.53a4.39,4.39,0,0,1-3.45,0A4.37,4.37,0,0,1,.35,6.17a4.39,4.39,0,0,1,0-3.45A4.37,4.37,0,0,1,2.72.35,4.33,4.33,0,0,1,4.44,0Zm0,1.28a3.1,3.1,0,0,0-1.59.42A3.15,3.15,0,0,0,1.7,2.86,3.17,3.17,0,0,0,1.7,6,3.15,3.15,0,0,0,2.86,7.18,3.17,3.17,0,0,0,6,7.18,3.15,3.15,0,0,0,7.18,6a3.17,3.17,0,0,0,0-3.17A3.15,3.15,0,0,0,6,1.7,3.1,3.1,0,0,0,4.44,1.28Zm1.5,2.41H3.69v1.5H5.95v.75H3.69l-.75-.75V3.69l.75-.75H5.95Z"/></g></g></svg>