<svg xmlns="http://www.w3.org/2000/svg" viewBox="0 0 40.87 40.87"><defs><style>.cls-1{fill:#036;}</style></defs><title>Asset 9Forum Person silhouette</title><g id="Layer_2" data-name="Layer 2"><g id="User"><path class="cls-1" d="M20.44,0a9.84,9.84,0,0,1,7.22,3,9.85,9.85,0,0,1,3,7.22v8.52a6.56,6.56,0,0,1-1.06,3.34q-1.06,1.77-2.35,1.77V26.4A1.79,1.79,0,0,0,28,27.72l12.19,7.83a1.3,1.3,0,0,1,.51.56,1.6,1.6,0,0,1,.2.73V40a.87.87,0,0,1-.85.85H.85a.82.82,0,0,1-.6-.26A.82.82,0,0,1,0,40V36.85a1.59,1.59,0,0,1,.2-.73,1.31,1.31,0,0,1,.51-.56l12.19-7.83a1.57,1.57,0,0,0,.51-.6,1.6,1.6,0,0,0,.2-.73V23.84q-1.29,0-2.35-1.77a6.57,6.57,0,0,1-1.06-3.34V10.22a9.84,9.84,0,0,1,3-7.22,9.85,9.85,0,0,1,7.22-3Z"/></g></g></svg>