<svg xmlns="http://www.w3.org/2000/svg" viewBox="0 0 32 29.33"><defs><style>.cls-1{fill:#036;}</style></defs><title>Asset 9Hand like</title><g id="Layer_2" data-name="Layer 2"><g id="User"><path class="cls-1" d="M17.33,0h1.33a2.3,2.3,0,0,1,1.87,1.08,3.73,3.73,0,0,1,.8,2.25v4l-.75,3.33h8.75a2.3,2.3,0,0,1,1.87,1.08A3.73,3.73,0,0,1,32,14v2.67a2.67,2.67,0,0,1-.77,2l-6.35,9.17a4.37,4.37,0,0,1-1,1.08,2,2,0,0,1-1.2.44H16a3.84,3.84,0,0,1-1.12-.67q-.93-.67-1.76-1.33l-.83-.67H10.67a3.48,3.48,0,0,1-1.93-.48A1.68,1.68,0,0,1,8,24.67V14a2.75,2.75,0,0,1,.53-1.68L12.4,7.09,15,1.81A3.58,3.58,0,0,1,16,.53,2.14,2.14,0,0,1,17.33,0Zm0,2.67L14.67,8.32l-4,5.68V24h2.67L17,26.67h5.71l6.67-10V13.34h-12l1.33-6V2.67H17.33Zm-16,8H4A1.32,1.32,0,0,1,5.34,12V25.34A1.32,1.32,0,0,1,4,26.67H1.33a1.29,1.29,0,0,1-.95-.39A1.29,1.29,0,0,1,0,25.34V12a1.29,1.29,0,0,1,.39-.95A1.29,1.29,0,0,1,1.33,10.67Z"/></g></g></svg>