<svg xmlns="http://www.w3.org/2000/svg" viewBox="0 0 16.8 17.14"><defs><style>.cls-1{fill:#fff;}</style></defs><title>Asset 9Log Out</title><g id="Layer_2" data-name="Layer 2"><g id="Lab_Owner" data-name="Lab Owner"><path class="cls-1" d="M7.67,0H9.13a.7.7,0,0,1,.52.21.7.7,0,0,1,.21.52V6.55a.72.72,0,0,1-.73.73H7.67a.72.72,0,0,1-.73-.73V.73A.7.7,0,0,1,7.16.21.7.7,0,0,1,7.67,0Zm3.64,3.28V.86a8.32,8.32,0,0,1,4,3.05A8.12,8.12,0,0,1,16.8,8.74,8.25,8.25,0,0,1,16.14,12a8.23,8.23,0,0,1-4.48,4.48,8.36,8.36,0,0,1-6.52,0A8.23,8.23,0,0,1,.66,12,8.25,8.25,0,0,1,0,8.74,8.12,8.12,0,0,1,1.53,3.91a8.32,8.32,0,0,1,4-3.05V3.28a6.24,6.24,0,0,0-2.4,2.26,6,6,0,0,0-.9,3.2A6.19,6.19,0,0,0,8.4,15a6.19,6.19,0,0,0,6.22-6.22,6,6,0,0,0-.9-3.2,6.24,6.24,0,0,0-2.4-2.26Z"/></g></g></svg>