<svg xmlns="http://www.w3.org/2000/svg" viewBox="0 0 156.34 18.86"><defs><style>.cls-1{fill:#fff;}.cls-2{fill:#86bc25;}</style></defs><title>Asset 7logo</title><g id="Layer_2" data-name="Layer 2"><g id="User"><g id="Logo"><path class="cls-1" d="M14.54,9.69a8.85,8.85,0,0,1-2.36,6.61,9.07,9.07,0,0,1-6.64,2.32H0V1.49H5.93A9,9,0,0,1,12.3,3.6,8,8,0,0,1,14.54,9.69Zm-4.8.16a5.45,5.45,0,0,0-.93-3.49A3.45,3.45,0,0,0,6,5.23H4.63v9.6h1A3.73,3.73,0,0,0,8.75,13.6,5.92,5.92,0,0,0,9.74,9.86Z"/><path class="cls-1" d="M23.75,18.86a7.13,7.13,0,0,1-5.15-1.76,6.64,6.64,0,0,1-1.83-5,7.23,7.23,0,0,1,1.7-5.16,6.35,6.35,0,0,1,4.85-1.8A6.44,6.44,0,0,1,28,6.67a6,6,0,0,1,1.63,4.51v2H21.4A2.27,2.27,0,0,0,22.21,15a3.19,3.19,0,0,0,2.09.63,10.1,10.1,0,0,0,2.22-.23,11,11,0,0,0,2.2-.78v3.29a8.08,8.08,0,0,1-2.23.76A15.41,15.41,0,0,1,23.75,18.86ZM23.48,8.23a1.91,1.91,0,0,0-1.35.51,2.39,2.39,0,0,0-.64,1.6h3.94a2.28,2.28,0,0,0-.54-1.54A1.8,1.8,0,0,0,23.48,8.23Z"/><path class="cls-1" d="M36.76,18.62H32.18V.39h4.58Z"/><path class="cls-1" d="M52.62,12A7,7,0,0,1,50.87,17,6.48,6.48,0,0,1,46,18.86,6.35,6.35,0,0,1,41.15,17a7,7,0,0,1-1.79-5,6.93,6.93,0,0,1,1.75-5A6.55,6.55,0,0,1,46,5.11a7,7,0,0,1,3.46.83A5.68,5.68,0,0,1,51.8,8.33,7.7,7.7,0,0,1,52.62,12ZM44,12a5.9,5.9,0,0,0,.46,2.61,1.59,1.59,0,0,0,1.54.9,1.54,1.54,0,0,0,1.51-.9A6.1,6.1,0,0,0,48,12a5.8,5.8,0,0,0-.45-2.57,1.76,1.76,0,0,0-3,0A5.66,5.66,0,0,0,44,12Z"/><path class="cls-1" d="M55.14,2A1.94,1.94,0,0,1,55.71.5a3.64,3.64,0,0,1,3.71,0A1.92,1.92,0,0,1,60,2q0,2-2.45,2T55.14,2Zm4.7,16.58H55.25V5.34h4.58Z"/><path class="cls-1" d="M69.54,15.23a6.81,6.81,0,0,0,2.21-.46v3.34a9,9,0,0,1-1.76.57,10,10,0,0,1-2,.17,4.29,4.29,0,0,1-3.33-1.13,5.06,5.06,0,0,1-1-3.47V8.78H62.07V6.91l2-1.44L65.3,2.68h3V5.34h3.26V8.78H68.3v5.17Q68.3,15.23,69.54,15.23Z"/><path class="cls-1" d="M80.58,15.23a6.81,6.81,0,0,0,2.21-.46v3.34a9,9,0,0,1-1.76.57,10,10,0,0,1-2,.17,4.29,4.29,0,0,1-3.33-1.13,5.06,5.06,0,0,1-1-3.47V8.78H73.11V6.91l2-1.44,1.18-2.79h3V5.34h3.26V8.78H79.34v5.17Q79.34,15.23,80.58,15.23Z"/><path class="cls-1" d="M91.52,18.86a7.13,7.13,0,0,1-5.15-1.76,6.64,6.64,0,0,1-1.83-5,7.23,7.23,0,0,1,1.7-5.16,6.35,6.35,0,0,1,4.85-1.8,6.44,6.44,0,0,1,4.63,1.56,6,6,0,0,1,1.63,4.51v2H89.17A2.27,2.27,0,0,0,90,15a3.19,3.19,0,0,0,2.09.63,10.1,10.1,0,0,0,2.22-.23,11,11,0,0,0,2.2-.78v3.29a8.08,8.08,0,0,1-2.23.76A15.41,15.41,0,0,1,91.52,18.86ZM91.25,8.23a1.91,1.91,0,0,0-1.35.51,2.39,2.39,0,0,0-.64,1.6H93.2a2.28,2.28,0,0,0-.54-1.54A1.8,1.8,0,0,0,91.25,8.23Z"/><path class="cls-2" d="M102,18.62V1.49h4.63V14.88h6.6v3.74Z"/><path class="cls-2" d="M124.36,18.62l-.88-1.76h-.09a5.22,5.22,0,0,1-1.89,1.57,6.23,6.23,0,0,1-2.48.42,3.9,3.9,0,0,1-3-1.12A4.39,4.39,0,0,1,115,14.57a3.6,3.6,0,0,1,1.48-3.16,8.07,8.07,0,0,1,4.28-1.17l2.21-.07V10a1.44,1.44,0,0,0-1.62-1.64,9.67,9.67,0,0,0-3.69,1l-1.32-3a12.74,12.74,0,0,1,5.86-1.2,5.69,5.69,0,0,1,4,1.27,4.53,4.53,0,0,1,1.4,3.54v8.71Zm-3.4-3a2.07,2.07,0,0,0,1.42-.53,1.75,1.75,0,0,0,.59-1.37v-1l-1.05,0q-2.26.08-2.26,1.66Q119.66,15.62,121,15.62Z"/><path class="cls-2" d="M138.76,5.11a4,4,0,0,1,3.44,1.82,8.65,8.65,0,0,1,1.27,5A8.73,8.73,0,0,1,142.19,17a4.11,4.11,0,0,1-3.57,1.83,5,5,0,0,1-1.31-.16,3.87,3.87,0,0,1-1-.44,5.37,5.37,0,0,1-1-.94H135l-.73,1.3h-3.57V.39h4.58V4.51q0,.74-.16,2.54h.16a4.19,4.19,0,0,1,1.54-1.49A4.22,4.22,0,0,1,138.76,5.11Zm-1.68,3.6a1.57,1.57,0,0,0-1.41.67,3.86,3.86,0,0,0-.45,2.1v.64a4.59,4.59,0,0,0,.45,2.34,1.58,1.58,0,0,0,1.45.71,1.35,1.35,0,0,0,1.24-.83,5.38,5.38,0,0,0,.43-2.43Q138.81,8.71,137.09,8.71Z"/><path class="cls-2" d="M156.34,14.54a3.77,3.77,0,0,1-1.45,3.22,6.86,6.86,0,0,1-4.17,1.09,18.12,18.12,0,0,1-2.57-.16,10.9,10.9,0,0,1-2.23-.58V14.45a13.79,13.79,0,0,0,2.34.77,9.85,9.85,0,0,0,2.27.3q1.49,0,1.49-.68a.77.77,0,0,0-.42-.63,19,19,0,0,0-2.42-1.07,6,6,0,0,1-2.55-1.71A3.88,3.88,0,0,1,145.9,9a3.35,3.35,0,0,1,1.43-2.88,6.83,6.83,0,0,1,4-1,10.19,10.19,0,0,1,2.47.29,14.67,14.67,0,0,1,2.4.84l-1.24,3a14,14,0,0,0-1.93-.7,6.43,6.43,0,0,0-1.66-.29q-1.12,0-1.12.55a.69.69,0,0,0,.39.58,21.13,21.13,0,0,0,2.27,1A8.71,8.71,0,0,1,155,11.44a3.37,3.37,0,0,1,1,1.29A4.55,4.55,0,0,1,156.34,14.54Z"/></g></g></g></svg>