<svg xmlns="http://www.w3.org/2000/svg" xmlns:xlink="http://www.w3.org/1999/xlink" viewBox="0 0 192.53 36.17"><defs><style>.cls-1{fill:none;stroke-miterlimit:10;stroke-width:2px;stroke:url(#linear-gradient);}.cls-2{fill:#036;}</style><linearGradient id="linear-gradient" y1="18.09" x2="192.53" y2="18.09" gradientUnits="userSpaceOnUse"><stop offset="0" stop-color="#036"/><stop offset="0.42" stop-color="#005789"/><stop offset="0.78" stop-color="#006ea0"/><stop offset="1" stop-color="#0076a8"/></linearGradient></defs><title>Asset 8 1Propose Lab button</title><g id="Layer_2" data-name="Layer 2"><g id="User"><rect class="cls-1" x="1" y="1" width="190.53" height="34.17" rx="4.63" ry="4.63"/><path class="cls-2" d="M59.43,15.34a3.82,3.82,0,0,1-1.26,3.08,5.39,5.39,0,0,1-3.58,1.07H53.45v4.44H50.8V11.44h4a5.31,5.31,0,0,1,3.46,1A3.57,3.57,0,0,1,59.43,15.34Zm-6,2h.87a2.9,2.9,0,0,0,1.83-.48,1.69,1.69,0,0,0,.61-1.41,1.73,1.73,0,0,0-.51-1.38,2.38,2.38,0,0,0-1.59-.44H53.45Z"/><path class="cls-2" d="M64.44,19.14v4.79H61.79V11.44h3.64a6.23,6.23,0,0,1,3.77.93,3.31,3.31,0,0,1,1.22,2.81,3.31,3.31,0,0,1-.61,2,4,4,0,0,1-1.72,1.35q2.82,4.21,3.67,5.44H68.83l-3-4.79Zm0-2.15h.85a3.27,3.27,0,0,0,1.85-.42,1.5,1.5,0,0,0,.6-1.32A1.37,1.37,0,0,0,67.13,14a3.7,3.7,0,0,0-1.89-.38h-.8Z"/><path class="cls-2" d="M84.68,17.67a6.78,6.78,0,0,1-1.54,4.77,6.66,6.66,0,0,1-8.82,0,6.8,6.8,0,0,1-1.54-4.78,6.71,6.71,0,0,1,1.54-4.76,5.77,5.77,0,0,1,4.42-1.64,5.69,5.69,0,0,1,4.4,1.66A6.79,6.79,0,0,1,84.68,17.67Zm-9.12,0a5.21,5.21,0,0,0,.79,3.15,2.78,2.78,0,0,0,2.38,1.06q3.17,0,3.17-4.21t-3.15-4.22a2.8,2.8,0,0,0-2.38,1.06A5.2,5.2,0,0,0,75.56,17.67Z"/><path class="cls-2" d="M95.89,15.34a3.82,3.82,0,0,1-1.26,3.08A5.39,5.39,0,0,1,91,19.49H89.91v4.44H87.27V11.44h4a5.31,5.31,0,0,1,3.46,1A3.57,3.57,0,0,1,95.89,15.34Zm-6,2h.87a2.9,2.9,0,0,0,1.83-.48,1.69,1.69,0,0,0,.61-1.41,1.73,1.73,0,0,0-.51-1.38,2.38,2.38,0,0,0-1.59-.44H89.91Z"/><path class="cls-2" d="M109.59,17.67a6.78,6.78,0,0,1-1.54,4.77,6.66,6.66,0,0,1-8.82,0,6.8,6.8,0,0,1-1.54-4.78,6.71,6.71,0,0,1,1.54-4.76,5.77,5.77,0,0,1,4.42-1.64,5.69,5.69,0,0,1,4.4,1.66A6.79,6.79,0,0,1,109.59,17.67Zm-9.12,0a5.21,5.21,0,0,0,.79,3.15,2.78,2.78,0,0,0,2.38,1.06q3.17,0,3.17-4.21t-3.15-4.22a2.8,2.8,0,0,0-2.38,1.06A5.2,5.2,0,0,0,100.47,17.67Z"/><path class="cls-2" d="M119.55,20.46a3.23,3.23,0,0,1-1.22,2.67,5.29,5.29,0,0,1-3.39,1,8,8,0,0,1-3.54-.75V20.89a14.57,14.57,0,0,0,2.14.79,6.34,6.34,0,0,0,1.6.23,2.28,2.28,0,0,0,1.34-.33,1.14,1.14,0,0,0,.47-1,1.09,1.09,0,0,0-.21-.65,2.3,2.3,0,0,0-.6-.55,15.53,15.53,0,0,0-1.62-.85,7.68,7.68,0,0,1-1.72-1,3.87,3.87,0,0,1-.91-1.15,3.29,3.29,0,0,1-.34-1.54,3.23,3.23,0,0,1,1.12-2.61,4.67,4.67,0,0,1,3.11-.95,7.34,7.34,0,0,1,1.86.23,12.73,12.73,0,0,1,1.85.65l-.85,2.06a12.46,12.46,0,0,0-1.65-.57,5.31,5.31,0,0,0-1.29-.16,1.7,1.7,0,0,0-1.15.35,1.16,1.16,0,0,0-.4.91,1.13,1.13,0,0,0,.16.61,1.78,1.78,0,0,0,.52.5,15.92,15.92,0,0,0,1.68.88,6.68,6.68,0,0,1,2.4,1.68A3.28,3.28,0,0,1,119.55,20.46Z"/><path class="cls-2" d="M129,23.93h-7.19V11.44H129v2.17h-4.54v2.74h4.23v2.17h-4.23v3.22H129Z"/><path class="cls-2" d="M136.16,23.93V11.44h2.65v10.3h5.07v2.19Z"/><path class="cls-2" d="M153.69,23.93l-.91-3h-4.55l-.91,3h-2.85l4.41-12.54h3.24l4.43,12.54Zm-1.54-5.19q-1.26-4-1.41-4.57c-.11-.35-.18-.63-.23-.84q-.28,1.09-1.62,5.41Z"/><path class="cls-2" d="M158.11,11.44H162a7.49,7.49,0,0,1,3.86.76,2.63,2.63,0,0,1,1.2,2.4,3,3,0,0,1-.53,1.84,2.1,2.1,0,0,1-1.4.86v.09a2.75,2.75,0,0,1,1.71,1,3.22,3.22,0,0,1,.53,1.93A3.18,3.18,0,0,1,166.14,23a5.33,5.33,0,0,1-3.35,1h-4.67Zm2.65,4.95h1.54a2.81,2.81,0,0,0,1.56-.33,1.24,1.24,0,0,0,.48-1.1,1.1,1.1,0,0,0-.53-1,3.38,3.38,0,0,0-1.66-.31h-1.39Zm0,2.1v3.25h1.73a2.56,2.56,0,0,0,1.61-.42,1.54,1.54,0,0,0,.52-1.28q0-1.55-2.22-1.55Z"/><path class="cls-2" d="M33.22,25.89l-8.41-4.81L19.34,28V20.67H12.39L33.22,6.81ZM20.73,20.3v4L32.63,7.71Z"/></g></g></svg>