<svg xmlns="http://www.w3.org/2000/svg" xmlns:xlink="http://www.w3.org/1999/xlink" viewBox="0 0 19.57 16.34"><defs><style>.cls-1{stroke:#39b54a;stroke-miterlimit:10;stroke-width:0.5px;fill:url(#linear-gradient);}</style><linearGradient id="linear-gradient" x1="0.31" y1="7.82" x2="19.32" y2="7.82" gradientUnits="userSpaceOnUse"><stop offset="0" stop-color="#7ac943"/><stop offset="0.26" stop-color="#7cc93f"/><stop offset="0.5" stop-color="#83c935"/><stop offset="0.72" stop-color="#8fc922"/><stop offset="0.94" stop-color="#9fc909"/><stop offset="1" stop-color="#a5c900"/></linearGradient></defs><title>Asset 1Reply button</title><g id="Layer_2" data-name="Layer 2"><g id="Capa_1" data-name="Capa 1"><path class="cls-1" d="M10.63.4l8.43,6.9a.65.65,0,0,1,0,1l-8.43,6.9q-.26.21-.44.13T10,14.94v-4.7a16.37,16.37,0,0,0-2.94.32,15.22,15.22,0,0,0-2.75.84A8.09,8.09,0,0,0,1.93,12.9,6.86,6.86,0,0,0,.31,15.09,16.13,16.13,0,0,1,.75,12a10.32,10.32,0,0,1,1.09-2.7A8.14,8.14,0,0,1,3.66,7.08,8.6,8.6,0,0,1,6.36,5.6,13.17,13.17,0,0,1,10,4.92V.69q0-.34.19-.42t.44.13Z"/></g></g></svg>